<svg xmlns="http://www.w3.org/2000/svg" version="1.1" xmlns:xlink="http://www.w3.org/1999/xlink" width="512" height="512" x="0" y="0" viewBox="0 0 512 512" xml:space="preserve"><g><path d="M503.691 247.744c-31.618 0-53.84-42.798-64.269-68.308-8.95-21.883-29.949-36.021-53.505-36.021h-17.335v-17.331c0-23.56-14.138-44.559-36.021-53.505-25.507-10.433-68.304-32.659-68.304-64.269a8.256 8.256 0 0 0-16.512 0c0 31.614-42.798 53.836-68.308 64.269-21.883 8.946-36.021 29.945-36.021 53.505v17.331h-17.335c-23.552 0-44.551 14.138-53.505 36.021-10.429 25.511-32.646 68.308-64.265 68.308a8.256 8.256 0 0 0 0 16.512c31.618 0 53.836 42.798 64.265 68.308 8.95 21.883 29.953 36.021 53.505 36.021h17.335v17.335c0 23.552 14.138 44.555 36.021 53.505 25.511 10.429 68.308 32.646 68.308 64.265a8.256 8.256 0 0 0 16.512 0c0-31.614 42.794-53.836 68.304-64.265 21.883-8.95 36.021-29.953 36.021-53.505v-17.335h17.335c23.56 0 44.559-14.138 53.505-36.021 10.429-25.511 32.65-68.308 64.269-68.308a8.256 8.256 0 0 0 0-16.512zm-149.203 45.631a8.257 8.257 0 0 0-2.419 5.837v52.86h-52.856a8.257 8.257 0 0 0-5.837 2.419L256 391.867l-37.379-37.375a8.257 8.257 0 0 0-5.838-2.419h-52.856v-52.86a8.257 8.257 0 0 0-2.419-5.837L120.133 256l37.375-37.375a8.257 8.257 0 0 0 2.419-5.837v-52.86h52.856a8.26 8.26 0 0 0 5.838-2.419L256 120.133l37.375 37.375a8.257 8.257 0 0 0 5.837 2.419h52.856v52.86c0 2.189.871 4.289 2.419 5.837L391.867 256zM185.684 87.865C211.92 77.134 241.842 60.488 256 36.969c14.158 23.519 44.076 40.165 70.312 50.897 15.646 6.394 25.757 21.395 25.757 38.218v17.331h-49.437l-40.794-40.794a8.254 8.254 0 0 0-11.675 0l-40.798 40.794h-49.437v-17.331c-.001-16.824 10.11-31.825 25.756-38.219zm-59.605 264.208c-16.819 0-31.82-10.111-38.218-25.757C77.134 300.08 60.492 270.158 36.969 256c23.523-14.158 40.165-44.08 50.893-70.316 6.398-15.646 21.403-25.757 38.218-25.757h17.335v49.441l-40.794 40.794a8.254 8.254 0 0 0 0 11.675l40.794 40.794v49.441h-17.336zm200.233 72.066c-26.237 10.728-56.154 27.369-70.312 50.893-14.158-23.523-44.08-40.165-70.316-50.893-15.646-6.398-25.757-21.399-25.757-38.218v-17.335h49.437l40.798 40.794c1.613 1.613 3.725 2.419 5.837 2.419s4.225-.806 5.837-2.419l40.794-40.794h49.437v17.335c.002 16.819-10.109 31.82-25.755 38.218zm97.823-97.823c-6.394 15.646-21.395 25.757-38.218 25.757h-17.335v-49.441l40.798-40.794c1.548-1.548 2.419-3.648 2.419-5.837s-.871-4.289-2.419-5.837l-40.798-40.794v-49.441h17.335c16.819 0 31.82 10.111 38.218 25.757 10.728 26.236 27.369 56.158 50.893 70.316-23.524 14.156-40.166 44.078-50.893 70.314zM311.867 218.975l-51.739-29.869a8.255 8.255 0 0 0-8.256 0l-51.739 29.869a8.255 8.255 0 0 0-4.128 7.152v59.746a8.256 8.256 0 0 0 4.128 7.152l51.739 29.873c1.278.738 2.701 1.105 4.128 1.105s2.85-.367 4.128-1.105l51.739-29.873a8.256 8.256 0 0 0 4.128-7.152v-59.746a8.254 8.254 0 0 0-4.128-7.152zm-12.384 62.133L256 306.211l-43.483-25.104v-50.215l43.483-25.1 43.483 25.1z" fill="#9d5148" opacity="1" data-original="#000000"></path></g></svg>